<?xml version="1.0" standalone="no"?>
<!DOCTYPE svg PUBLIC "-//W3C//DTD SVG 20010904//EN"
 "http://www.w3.org/TR/2001/REC-SVG-20010904/DTD/svg10.dtd">
<svg version="1.0" xmlns="http://www.w3.org/2000/svg"
 width="416.000000pt" height="416.000000pt" viewBox="0 0 416.000000 416.000000"
 preserveAspectRatio="xMidYMid meet">

<g transform="translate(0.000000,416.000000) scale(0.100000,-0.100000)"
fill="#000000" stroke="none">
<path d="M1150 3201 l0 -51 -55 0 c-54 0 -55 0 -55 -30 0 -30 1 -30 55 -30
l55 0 0 -184 0 -185 -42 -3 -43 -3 -3 -112 -3 -113 46 0 45 0 0 -535 0 -535
55 0 55 0 0 -110 0 -110 -39 0 c-55 0 -71 -8 -71 -36 0 -22 -4 -24 -46 -24
-44 0 -45 -1 -42 -27 3 -25 7 -28 46 -31 l42 -3 0 -75 0 -74 345 0 344 0 3
133 3 132 50 3 50 3 -3 109 -3 110 -50 0 -49 0 0 95 0 95 109 0 109 0 54 -92
53 -93 57 -3 56 -3 61 -104 c34 -58 61 -107 61 -110 0 -3 -20 -5 -43 -5 -24 0
-46 -3 -49 -6 -3 -3 28 -63 70 -135 l77 -129 373 0 374 0 -4 53 c-2 28 -8 61
-13 71 -7 16 -5 18 8 13 16 -6 16 -4 2 23 -9 17 -24 30 -34 30 -20 0 -63 58
-55 72 3 4 25 8 50 8 l44 0 -68 110 -67 110 -55 0 -55 0 -102 166 -101 166 61
52 c34 28 88 87 120 129 l58 77 48 0 c41 0 49 3 59 25 11 25 11 25 -33 25 -25
0 -45 4 -45 10 0 5 9 31 19 58 30 75 51 192 51 282 l0 80 -44 0 -45 0 -6 48
c-4 26 -13 73 -21 105 -19 79 -19 77 26 77 22 0 40 5 40 10 0 6 22 10 50 10
49 0 50 0 38 25 -10 22 -18 25 -58 25 l-48 0 -42 73 c-26 43 -78 107 -130 158
-71 71 -103 94 -181 133 -187 92 -166 90 -886 94 l-633 3 0 -50z m230 -81 c0
-29 -2 -30 -45 -30 -43 0 -45 1 -45 30 0 29 2 30 45 30 43 0 45 -1 45 -30z
m1430 -355 c0 -23 -4 -25 -45 -25 -41 0 -45 2 -45 25 0 23 4 25 45 25 41 0 45
-2 45 -25z m-639 -61 c19 -9 49 -31 68 -48 34 -31 81 -117 81 -148 0 -13 11
-18 48 -20 l47 -3 3 -44 c4 -59 -30 -168 -69 -214 -61 -74 -88 -82 -311 -85
l-198 -4 0 96 0 96 30 0 c27 0 30 3 30 30 0 27 -3 30 -30 30 -29 0 -30 1 -30
50 l0 50 -50 0 -50 0 0 108 c0 60 3 112 7 115 3 4 93 7 198 7 157 0 198 -3
226 -16z m-516 -344 c0 -21 -5 -26 -32 -28 -31 -3 -33 -1 -33 28 0 29 2 31 32
28 28 -2 33 -7 33 -28z m1125 -325 c0 -23 -4 -25 -45 -25 -41 0 -45 2 -45 25
0 23 4 25 45 25 41 0 45 -2 45 -25z m-1340 -920 c0 -23 -4 -25 -45 -25 -41 0
-45 2 -45 25 0 23 4 25 45 25 41 0 45 -2 45 -25z m1340 -26 c0 -24 -4 -30 -17
-27 -11 2 -19 14 -21 31 -3 22 1 27 17 27 17 0 21 -6 21 -31z"/>
</g>
</svg>
